<?xml version="1.0" encoding="utf-8"?>
<!-- Generator: Adobe Illustrator 21.0.0, SVG Export Plug-In . SVG Version: 6.00 Build 0)  -->
<svg version="1.1" id="Warstwa_1" xmlns="http://www.w3.org/2000/svg" xmlns:xlink="http://www.w3.org/1999/xlink" x="0px" y="0px"
	 viewBox="0 0 300 110" style="enable-background:new 0 0 300 110;" xml:space="preserve">
<style type="text/css">
	.st0{fill:#EC1C24;}
	.st1{fill:#FFFFFF;}
</style>
<g>
	<rect x="-1" y="-0.8" class="st0" width="302.5" height="111.6"/>
	<g>
		<polygon class="st1" points="46.6,28.2 68.5,82.2 72.9,82.2 86.4,54.4 86.7,54.4 100.1,82.2 104.5,82.2 126.5,27.9 111.2,27.9 
			101.1,53.5 100.8,53.5 88.7,27 84.3,27 72.1,53.5 71.8,53.5 62,28 		"/>
		<path class="st1" d="M144.4,27.1h-4.5l-24.1,54.1h14.8l2-4.5h19l2,4.5h14.9L144.4,27.1z M137.3,65.9l4.9-12.6l4.7,12.6H137.3z"/>
		<polygon class="st1" points="205.8,28.1 205.8,40.3 221.6,40.3 221.6,81.2 235.4,81.2 235.4,40.3 251.1,40.3 251.1,28.1 		"/>
		<g>
			<path class="st1" d="M189,27.1h-4.5l-14.7,33.1l7.4,16.6l0-0.1h19l2,4.5h14.9L189,27.1z M181.9,65.9l4.9-12.6l4.7,12.6H181.9z"/>
		</g>
	</g>
</g>
</svg>
