<svg xmlns="http://www.w3.org/2000/svg" width="345" height="128" viewBox="0 0 345 128">
    <g fill="none" fill-rule="evenodd">
        <path fill="#242424" d="M0 127h345V0H0z"/>
        <path fill="#FFF" d="M54 33.295L78.94 95h5.027l15.365-31.74h.288L114.938 95h5.026L145 33.056h-17.472l-11.49 29.196h-.334L101.87 32h-4.978L83.057 62.252h-.43L71.52 33.151zM157.45 76.414L163 61.99l5.311 14.424h-10.862zM165.582 32h-5.167L133 94h16.842l2.248-5.134h21.675L176.062 94H193l-27.417-62zM236 33v14.028h18.148V94h15.896V47.028H288V33zM208.714 76.414l5.509-14.424 5.27 14.424h-10.78zM216.787 32h-5.129L195 69.952l8.347 19.021.047-.107h21.514l2.28 5.134H244l-27.213-62z"/>
    </g>
</svg>
