<svg xmlns="http://www.w3.org/2000/svg" width="36" height="36" viewBox="0 0 36 36">
    <g fill="none" fill-rule="evenodd">
        <path fill="#4A66B0" d="M0 0h35.905v36H0z"/>
        <path fill="#FFF" d="M13.693 25.81h-3.164V15.704h3.164v10.108zm-1.652-11.372h-.036c-.574 0-1.03-.17-1.37-.51-.34-.34-.51-.75-.51-1.23 0-.505.175-.924.527-1.258.352-.334.82-.5 1.406-.5s1.046.166 1.38.5c.334.334.507.747.519 1.24 0 .492-.173.908-.519 1.248-.346.34-.811.51-1.397.51zM26.33 25.81h-3.585V20.59c0-.692-.144-1.248-.431-1.67-.287-.422-.741-.633-1.362-.633-.469 0-.841.129-1.116.387a2.28 2.28 0 0 0-.59.844 1.029 1.029 0 0 0-.078.378c-.006.146-.01.295-.01.448v5.467h-3.532v-1.46c0-.972.002-2.065.008-3.278a335.63 335.63 0 0 0 0-3.436 576.392 576.392 0 0 1-.008-1.934h3.533v1.6c.105-.352.43-.721.975-1.108.545-.386 1.275-.58 2.189-.58.562 0 1.087.091 1.573.273.486.181.908.463 1.266.843.357.381.641.859.852 1.433.211.574.317 1.248.317 2.022v5.625z"/>
    </g>
</svg>
