<svg xmlns="http://www.w3.org/2000/svg" width="36" height="36" viewBox="0 0 36 36">
    <g fill="none" fill-rule="evenodd">
        <path fill="#4A66B0" d="M0 0h35.905v36H0z"/>
        <path fill="#FFF" d="M26.314 17.742l-.255.484c-.17.322-.735.483-1.696.483l-.325.791c-.217.527-.551 1.125-1.002 1.793-.451.668-1.032 1.31-1.74 1.925-.71.615-1.562 1.01-2.558 1.186-1.207.211-2.317.232-3.331.062-1.014-.17-1.896-.443-2.646-.818-.75-.375-1.353-.805-1.81-1.292-.457-.486-.733-.94-.826-1.362l.545.413c.363.276.826.507 1.388.695.563.187 1.184.237 1.863.149.68-.088 1.342-.501 1.987-1.24l-.246-.026a.846.846 0 0 1-.457-.202.745.745 0 0 1-.273-.387l-.079-.246.36-.28c.24-.188.285-.37.132-.546l-.887-.158c-.592-.105-.912-.44-.958-1.002l1.02-.703-.247.079c-.164.053-.352.026-.562-.08l-.493-.491c-.328-.328-.445-.698-.351-1.108l.879-.088-.703-.676c-.47-.451-.598-.9-.387-1.345l.703.07c.469.047 1.951.944 4.447 2.69l.167-.528c.112-.351.273-.755.484-1.213.21-.457.471-.908.782-1.353.31-.445.67-.762 1.08-.95l.133.089c.088.058.132.123.132.193l.158-.264c.105-.175.234-.275.387-.299l.149.194c.1.129.09.24-.026.334l.351-.194c.234-.128.428-.14.58-.035l-.123.264c-.082.176-.346.387-.79.633l1.256.483c.838.322 1.456 1.298 1.854 2.927l.624.105c.417.07.859-.052 1.328-.369l-.15.325c-.1.217-.512.496-1.239.835l.22.097c.146.065.53.05 1.151-.044z"/>
    </g>
</svg>
